<svg width="176" height="40" viewBox="0 0 176 40" fill="none" xmlns="http://www.w3.org/2000/svg">
<mask id="mask0_1_2157" style="mask-type:alpha" maskUnits="userSpaceOnUse" x="0" y="8" width="24" height="24">
<circle cx="12" cy="20" r="12" fill="#C4C4C4"/>
</mask>
<g mask="url(#mask0_1_2157)">
<circle cx="6.29204" cy="5.86896" r="9.9559" transform="rotate(-22 6.29204 5.86896)" fill="#0A112F"/>
<circle cx="17.711" cy="34.1308" r="9.9559" transform="rotate(-22 17.711 34.1308)" fill="#0A112F"/>
<circle cx="-2.12886" cy="25.7093" r="9.9559" transform="rotate(-22 -2.12886 25.7093)" fill="#0A112F"/>
<circle cx="25.8707" cy="13.6435" r="9.9559" transform="rotate(-22 25.8707 13.6435)" fill="#0A112F"/>
</g>
<path d="M41.24 28.288C39.544 28.288 38.088 27.928 36.872 27.208C35.656 26.472 34.72 25.456 34.064 24.16C33.408 22.848 33.08 21.336 33.08 19.624C33.08 17.912 33.408 16.4 34.064 15.088C34.72 13.776 35.656 12.752 36.872 12.016C38.088 11.28 39.544 10.912 41.24 10.912C43.256 10.912 44.904 11.416 46.184 12.424C47.48 13.416 48.288 14.816 48.608 16.624H45.224C45.016 15.712 44.568 15 43.88 14.488C43.208 13.96 42.312 13.696 41.192 13.696C39.64 13.696 38.424 14.224 37.544 15.28C36.664 16.336 36.224 17.784 36.224 19.624C36.224 21.464 36.664 22.912 37.544 23.968C38.424 25.008 39.64 25.528 41.192 25.528C42.312 25.528 43.208 25.288 43.88 24.808C44.568 24.312 45.016 23.632 45.224 22.768H48.608C48.288 24.496 47.48 25.848 46.184 26.824C44.904 27.8 43.256 28.288 41.24 28.288ZM55.2393 28.288C53.7513 28.288 52.5993 27.824 51.7833 26.896C50.9833 25.968 50.5833 24.608 50.5833 22.816V16.096H53.6313V22.528C53.6313 23.552 53.8393 24.336 54.2553 24.88C54.6713 25.424 55.3273 25.696 56.2233 25.696C57.0713 25.696 57.7673 25.392 58.3113 24.784C58.8713 24.176 59.1513 23.328 59.1513 22.24V16.096H62.2233V28H59.5113L59.2713 25.984C58.9033 26.688 58.3673 27.248 57.6633 27.664C56.9753 28.08 56.1673 28.288 55.2393 28.288ZM64.8969 28V16.096H67.6329L67.9209 18.328C68.3529 17.56 68.9369 16.952 69.6729 16.504C70.4249 16.04 71.3049 15.808 72.3129 15.808V19.048H71.4489C70.7769 19.048 70.1769 19.152 69.6489 19.36C69.1209 19.568 68.7049 19.928 68.4009 20.44C68.1129 20.952 67.9689 21.664 67.9689 22.576V28H64.8969ZM73.9325 28V16.096H76.6685L76.9565 18.328C77.3885 17.56 77.9725 16.952 78.7085 16.504C79.4605 16.04 80.3405 15.808 81.3485 15.808V19.048H80.4845C79.8125 19.048 79.2125 19.152 78.6845 19.36C78.1565 19.568 77.7405 19.928 77.4365 20.44C77.1485 20.952 77.0045 21.664 77.0045 22.576V28H73.9325ZM88.5412 28.288C87.3412 28.288 86.2772 28.032 85.3492 27.52C84.4212 27.008 83.6932 26.288 83.1652 25.36C82.6372 24.432 82.3732 23.36 82.3732 22.144C82.3732 20.912 82.6292 19.816 83.1412 18.856C83.6692 17.896 84.3892 17.152 85.3012 16.624C86.2292 16.08 87.3172 15.808 88.5652 15.808C89.7332 15.808 90.7652 16.064 91.6612 16.576C92.5572 17.088 93.2532 17.792 93.7492 18.688C94.2612 19.568 94.5172 20.552 94.5172 21.64C94.5172 21.816 94.5092 22 94.4932 22.192C94.4932 22.384 94.4852 22.584 94.4692 22.792H85.4212C85.4852 23.72 85.8052 24.448 86.3812 24.976C86.9732 25.504 87.6852 25.768 88.5172 25.768C89.1412 25.768 89.6612 25.632 90.0772 25.36C90.5092 25.072 90.8292 24.704 91.0372 24.256H94.1572C93.9332 25.008 93.5572 25.696 93.0292 26.32C92.5172 26.928 91.8772 27.408 91.1092 27.76C90.3572 28.112 89.5012 28.288 88.5412 28.288ZM88.5652 18.304C87.8132 18.304 87.1492 18.52 86.5732 18.952C85.9972 19.368 85.6292 20.008 85.4692 20.872H91.3972C91.3492 20.088 91.0612 19.464 90.5332 19C90.0052 18.536 89.3492 18.304 88.5652 18.304ZM96.6209 28V16.096H99.3329L99.5729 18.112C99.9409 17.408 100.469 16.848 101.157 16.432C101.861 16.016 102.685 15.808 103.629 15.808C105.101 15.808 106.245 16.272 107.061 17.2C107.877 18.128 108.285 19.488 108.285 21.28V28H105.213V21.568C105.213 20.544 105.005 19.76 104.589 19.216C104.173 18.672 103.525 18.4 102.645 18.4C101.781 18.4 101.069 18.704 100.509 19.312C99.9649 19.92 99.6929 20.768 99.6929 21.856V28H96.6209ZM116.575 28.288C115.359 28.288 114.287 28.024 113.359 27.496C112.431 26.968 111.695 26.232 111.151 25.288C110.623 24.344 110.359 23.264 110.359 22.048C110.359 20.832 110.623 19.752 111.151 18.808C111.695 17.864 112.431 17.128 113.359 16.6C114.287 16.072 115.359 15.808 116.575 15.808C118.095 15.808 119.375 16.208 120.415 17.008C121.455 17.792 122.119 18.88 122.407 20.272H119.167C119.007 19.696 118.687 19.248 118.207 18.928C117.743 18.592 117.191 18.424 116.551 18.424C115.703 18.424 114.983 18.744 114.391 19.384C113.799 20.024 113.503 20.912 113.503 22.048C113.503 23.184 113.799 24.072 114.391 24.712C114.983 25.352 115.703 25.672 116.551 25.672C117.191 25.672 117.743 25.512 118.207 25.192C118.687 24.872 119.007 24.416 119.167 23.824H122.407C122.119 25.168 121.455 26.248 120.415 27.064C119.375 27.88 118.095 28.288 116.575 28.288ZM126.141 33.28L128.901 27.208H128.181L123.549 16.096H126.885L130.221 24.472L133.701 16.096H136.965L129.405 33.28H126.141Z" fill="#0A112F"/>
<path d="M138.493 33.28V16.096H141.229L141.565 17.8C141.949 17.272 142.453 16.808 143.077 16.408C143.717 16.008 144.541 15.808 145.549 15.808C146.669 15.808 147.669 16.08 148.549 16.624C149.429 17.168 150.125 17.912 150.637 18.856C151.149 19.8 151.405 20.872 151.405 22.072C151.405 23.272 151.149 24.344 150.637 25.288C150.125 26.216 149.429 26.952 148.549 27.496C147.669 28.024 146.669 28.288 145.549 28.288C144.653 28.288 143.869 28.12 143.197 27.784C142.525 27.448 141.981 26.976 141.565 26.368V33.28H138.493ZM144.901 25.6C145.877 25.6 146.685 25.272 147.325 24.616C147.965 23.96 148.285 23.112 148.285 22.072C148.285 21.032 147.965 20.176 147.325 19.504C146.685 18.832 145.877 18.496 144.901 18.496C143.909 18.496 143.093 18.832 142.453 19.504C141.829 20.16 141.517 21.008 141.517 22.048C141.517 23.088 141.829 23.944 142.453 24.616C143.093 25.272 143.909 25.6 144.901 25.6ZM153.67 28V16.096H156.406L156.694 18.328C157.126 17.56 157.71 16.952 158.446 16.504C159.198 16.04 160.078 15.808 161.086 15.808V19.048H160.222C159.55 19.048 158.95 19.152 158.422 19.36C157.894 19.568 157.478 19.928 157.174 20.44C156.886 20.952 156.742 21.664 156.742 22.576V28H153.67ZM168.206 28.288C167.054 28.288 166.014 28.024 165.086 27.496C164.174 26.968 163.446 26.24 162.902 25.312C162.374 24.368 162.11 23.28 162.11 22.048C162.11 20.816 162.382 19.736 162.926 18.808C163.47 17.864 164.198 17.128 165.11 16.6C166.038 16.072 167.078 15.808 168.23 15.808C169.366 15.808 170.39 16.072 171.302 16.6C172.23 17.128 172.958 17.864 173.486 18.808C174.03 19.736 174.302 20.816 174.302 22.048C174.302 23.28 174.03 24.368 173.486 25.312C172.958 26.24 172.23 26.968 171.302 27.496C170.374 28.024 169.342 28.288 168.206 28.288ZM168.206 25.624C169.006 25.624 169.702 25.328 170.294 24.736C170.886 24.128 171.182 23.232 171.182 22.048C171.182 20.864 170.886 19.976 170.294 19.384C169.702 18.776 169.014 18.472 168.23 18.472C167.414 18.472 166.71 18.776 166.118 19.384C165.542 19.976 165.254 20.864 165.254 22.048C165.254 23.232 165.542 24.128 166.118 24.736C166.71 25.328 167.406 25.624 168.206 25.624Z" fill="#355FE5"/>
</svg>
